<svg id="Layer_1" data-name="Layer 1" xmlns="http://www.w3.org/2000/svg" viewBox="0 0 20.24 16"><defs><style>.cls-1{fill:#7a490b;}</style></defs><ellipse class="cls-1" cx="4.67" cy="11.86" rx="4.67" ry="4.14"/><ellipse class="cls-1" cx="15.57" cy="11.86" rx="4.67" ry="4.14"/><rect class="cls-1" x="4.69" y="7.72" width="10.9" height="8.28"/><ellipse class="cls-1" cx="6.66" cy="6.38" rx="3.36" ry="2.98"/><ellipse class="cls-1" cx="14.51" cy="6.38" rx="3.36" ry="2.98"/><rect class="cls-1" x="6.68" y="3.4" width="7.85" height="5.97"/><path class="cls-1" d="M12.74,1a2.42,2.42,0,0,1,0,.47,3.19,3.19,0,0,1-3.36,3,3.26,3.26,0,0,1-.7-.07A3.26,3.26,0,0,0,12,6.9a3.19,3.19,0,0,0,3.36-3A3.1,3.1,0,0,0,12.74,1Z" transform="translate(-0.9 -1)"/></svg>
